<svg width="434" height="456" viewBox="0 0 434 456" fill="none" xmlns="http://www.w3.org/2000/svg">
<path d="M98.394 159.825L257.815 126.458L265.23 152.41L105.809 189.485L98.394 159.825Z" fill="#201F1F"/>
<path fill-rule="evenodd" clip-rule="evenodd" d="M276.352 163.533C292.733 163.533 306.012 150.253 306.012 133.873C306.012 117.492 292.733 104.213 276.352 104.213C259.972 104.213 246.693 117.492 246.693 133.873C246.693 150.253 259.972 163.533 276.352 163.533ZM276.352 148.703C284.542 148.703 291.182 142.063 291.182 133.873C291.182 125.683 284.542 119.043 276.352 119.043C268.162 119.043 261.522 125.683 261.522 133.873C261.522 142.063 268.162 148.703 276.352 148.703Z" fill="#201F1F"/>
<path fill-rule="evenodd" clip-rule="evenodd" d="M83.5642 208.022C99.9448 208.022 113.224 194.743 113.224 178.362C113.224 161.982 99.9448 148.703 83.5642 148.703C67.1836 148.703 53.9045 161.982 53.9045 178.362C53.9045 194.743 67.1836 208.022 83.5642 208.022ZM83.5642 193.192C91.7545 193.192 98.394 186.553 98.394 178.362C98.394 170.172 91.7545 163.533 83.5642 163.533C75.3739 163.533 68.7343 170.172 68.7343 178.362C68.7343 186.553 75.3739 193.192 83.5642 193.192Z" fill="#201F1F"/>
<path d="M150.298 100.506L227.915 428.22H272.645L176.251 93.0908L150.298 100.506Z" fill="#201F1F" stroke="#201F1F" stroke-width="8.98779"/>
<path d="M276.477 446.107C196.161 475.074 63.9536 394.8 63.9536 394.8L47.3723 417.508L6.83787 347.958L42.7648 345.654L78.6918 343.35L72.6583 361.775C72.6583 361.775 190.616 435.754 263.395 410.871C329.242 388.358 385.36 287.611 385.36 287.611L370.068 274.162L429.531 245.097L426.492 310.226L404.015 297.237C404.015 297.237 348.491 420.134 276.477 446.107Z" fill="#201F1F"/>
<path d="M276.477 446.107C196.161 475.074 63.9536 394.8 63.9536 394.8L47.3723 417.508L6.83787 347.958L42.7648 345.654L78.6918 343.35L72.6583 361.775C72.6583 361.775 190.616 435.754 263.395 410.871C329.242 388.358 385.36 287.611 385.36 287.611L370.068 274.162L429.531 245.097L426.492 310.226L404.015 297.237C404.015 297.237 348.491 420.134 276.477 446.107Z" stroke="#201F1F" stroke-width="7.20015"/>
<path d="M276.477 446.107C196.161 475.074 63.9536 394.8 63.9536 394.8L47.3723 417.508L6.83787 347.958L42.7648 345.654L78.6918 343.35L72.6583 361.775C72.6583 361.775 190.616 435.754 263.395 410.871C329.242 388.358 385.36 287.611 385.36 287.611L370.068 274.162L429.531 245.097L426.492 310.226L404.015 297.237C404.015 297.237 348.491 420.134 276.477 446.107Z" stroke="#201F1F" stroke-width="7.20015"/>
<path d="M183.666 93.0908C183.666 93.0908 173.441 92.3087 172.543 96.7983C171.908 99.9729 176.251 104.213 176.251 104.213" stroke="#29224D" stroke-width="7.41492"/>
<path fill-rule="evenodd" clip-rule="evenodd" d="M154.006 111.628C184.72 111.628 209.618 86.7298 209.618 56.0162C209.618 25.3025 184.72 0.404236 154.006 0.404236C123.292 0.404236 98.394 25.3025 98.394 56.0162C98.394 86.7298 123.292 111.628 154.006 111.628ZM154.006 93.0908C174.482 93.0908 191.081 76.4919 191.081 56.0162C191.081 35.5404 174.482 18.9415 154.006 18.9415C133.53 18.9415 116.931 35.5404 116.931 56.0162C116.931 76.4919 133.53 93.0908 154.006 93.0908Z" fill="#201F1F"/>
<path d="M115.488 25.6239C165.928 -34.2727 247.75 57.442 175.385 101.283" stroke="#29224D" stroke-width="7.41492"/>
<path d="M197.452 167.484L266.806 413.376" stroke="#29224D" stroke-width="7.41492"/>
<path d="M187.995 139.112H191.147L178.537 101.283L175.385 98.1303L187.995 139.112Z" stroke="#29224D" stroke-width="3.15245"/>
<path d="M61.3194 170.947C78.3438 140.337 111.564 159.188 105.809 185.777" stroke="#29224D" stroke-width="7.41492"/>
<path d="M254.196 126.502C268.402 94.2823 309.573 116.267 298.597 142.237" stroke="#29224D" stroke-width="7.41492"/>
<path d="M74.5064 366.089C130.2 396.408 165.928 413.376 219.519 419.681" stroke="#29224D" stroke-width="7.41492"/>
<path d="M263.654 413.376C301.483 397.613 329.855 375.546 386.599 290.43" stroke="#29224D" stroke-width="6.30491"/>
<path d="M74.5064 347.174H8.3049L71.354 350.327L74.5064 347.174Z" stroke="#29224D" stroke-width="3.15245"/>
<path d="M375.53 273.981L428.738 246.296L379.706 275.544L375.53 273.981Z" stroke="#29224D" stroke-width="4.41343"/>
</svg>